<?xml version="1.0" standalone="no"?>
<!DOCTYPE svg PUBLIC "-//W3C//DTD SVG 20010904//EN"
 "http://www.w3.org/TR/2001/REC-SVG-20010904/DTD/svg10.dtd">
<svg version="1.0" xmlns="http://www.w3.org/2000/svg"
 width="600.000000pt" height="600.000000pt" viewBox="0 0 600.000000 600.000000"
 preserveAspectRatio="xMidYMid meet">
<metadata>
Created by potrace 1.14, written by Peter Selinger 2001-2017
</metadata>
<g transform="translate(0.000000,600.000000) scale(0.100000,-0.100000)"
fill="#000000" stroke="none">
<path d="M2918 4989 c-114 -27 -230 -118 -276 -217 l-27 -57 -3 128 -3 127
-184 0 -185 0 0 -1045 0 -1045 185 0 185 0 2 418 3 417 29 -60 c40 -80 111
-149 193 -187 57 -27 80 -32 170 -36 186 -8 309 33 418 143 143 142 219 415
201 717 -23 392 -174 631 -437 693 -69 16 -211 18 -271 4z m100 -304 c78 -23
144 -82 184 -162 l33 -67 3 -218 c3 -179 1 -227 -13 -274 -29 -101 -84 -166
-175 -208 -35 -16 -66 -21 -140 -21 -89 0 -100 2 -165 35 -51 26 -78 47 -100
78 l-30 44 -3 296 c-4 330 -1 351 55 413 79 87 223 122 351 84z"/>
<path d="M4647 4989 c-104 -24 -208 -109 -263 -213 -16 -31 -32 -56 -36 -56
-5 0 -8 56 -8 125 l0 125 -185 0 -185 0 0 -755 0 -755 185 0 185 0 0 513 c0
335 4 525 11 551 6 24 29 57 59 87 39 39 62 52 120 70 123 37 248 12 299 -60
56 -78 55 -75 59 -638 l3 -523 185 0 185 0 -3 558 c-4 611 -4 601 -68 739 -54
117 -165 206 -288 232 -62 13 -200 13 -255 0z"/>
<path d="M550 4962 c0 -4 112 -342 248 -752 l249 -745 220 -3 220 -2 248 742
c137 409 250 749 253 756 3 9 -35 12 -172 12 l-175 0 -55 -172 c-110 -345
-176 -568 -237 -791 -37 -134 -67 -226 -73 -224 -6 2 -45 127 -86 278 -42 151
-114 389 -159 529 -46 140 -92 283 -102 317 l-20 63 -179 0 c-99 0 -180 -3
-180 -8z"/>
<path d="M1410 2789 c-112 -22 -235 -117 -281 -217 -13 -29 -27 -52 -31 -52
-5 0 -8 56 -8 125 l0 125 -180 0 -180 0 0 -1045 0 -1045 180 0 180 0 0 415 c0
228 3 415 8 415 4 0 17 -21 29 -47 83 -180 287 -266 529 -222 135 24 270 123
341 249 125 220 150 637 56 922 -31 95 -104 210 -166 264 -117 101 -308 146
-477 113z m94 -303 c67 -20 119 -59 160 -119 58 -85 69 -149 64 -381 -5 -235
-17 -283 -94 -361 -69 -71 -119 -90 -240 -90 -96 0 -105 2 -170 35 -55 28 -74
45 -99 84 l-30 49 -3 288 c-2 189 1 302 8 329 12 46 68 113 114 137 83 44 202
55 290 29z"/>
<path d="M2845 2791 c-142 -24 -251 -77 -346 -171 -105 -103 -106 -92 17 -202
l106 -94 63 63 c39 39 86 74 122 91 51 23 70 27 158 27 109 0 158 -12 206 -52
55 -46 73 -96 77 -214 l4 -107 -223 -5 c-251 -6 -322 -18 -436 -71 -127 -60
-199 -144 -227 -266 -61 -259 67 -489 305 -545 189 -44 410 3 504 107 37 40
85 127 85 153 0 32 28 14 35 -22 9 -58 55 -134 102 -169 54 -41 116 -54 258
-54 l115 0 0 145 0 145 -75 0 -75 0 0 383 c-1 419 -7 490 -56 593 -55 116
-174 207 -329 249 -69 18 -313 28 -390 16z m405 -1006 c0 -165 -18 -204 -116
-253 -135 -68 -336 -44 -387 46 -28 48 -34 151 -12 207 36 97 111 123 348 124
l167 1 0 -125z"/>
<path d="M3870 2756 c0 -8 119 -364 266 -791 l265 -777 -34 -101 -34 -102
-136 -3 -137 -3 0 -149 0 -150 113 0 c144 0 268 16 327 41 60 26 119 87 163
169 30 55 647 1840 647 1871 0 6 -61 8 -167 7 l-168 -3 -131 -394 c-73 -217
-155 -481 -184 -587 -29 -107 -58 -194 -64 -194 -6 0 -33 87 -61 193 -27 105
-108 370 -180 587 l-130 395 -177 3 c-149 2 -178 0 -178 -12z"/>
</g>
</svg>
