<svg width="36" height="24" viewBox="0 0 36 24" fill="none" xmlns="http://www.w3.org/2000/svg">
<path d="M29 12C29 18.0742 24.0742 23 18 23C11.9258 23 7 18.0742 7 12C7 5.9258 11.9258 1 18 1C24.0742 1 29 5.9258 29 12Z" fill="url(#paint0_linear_21_136)"/>
<mask id="path-2-outside-1_21_136" maskUnits="userSpaceOnUse" x="11.6" y="2.84998" width="13" height="18" fill="black">
<rect fill="white" x="11.6" y="2.84998" width="13" height="18"/>
<path fill-rule="evenodd" clip-rule="evenodd" d="M17.4499 5.12498C17.4499 4.9731 17.5731 4.84998 17.7249 4.84998H18.8249C18.9768 4.84998 19.0999 4.9731 19.0999 5.12498V6.72993C19.3969 6.77087 19.6813 6.83604 19.9531 6.92545C20.4578 7.09038 20.9048 7.33117 21.294 7.64784C21.6832 7.96121 21.9999 8.3455 22.244 8.80071C22.4475 9.17523 22.5908 9.5944 22.6738 10.0582C22.7027 10.2203 22.5743 10.3642 22.4096 10.3642H20.7907C20.6537 10.3642 20.5395 10.2628 20.5073 10.1296C20.4622 9.9429 20.3962 9.77207 20.3094 9.61711C20.1873 9.39611 20.0306 9.20808 19.8393 9.05305C19.648 8.89802 19.427 8.77926 19.1763 8.6968C18.9289 8.61433 18.66 8.5731 18.3698 8.5731C17.8453 8.5731 17.3884 8.7034 16.9992 8.96399C16.61 9.22128 16.3081 9.59732 16.0937 10.0921C15.8793 10.5836 15.7721 11.1807 15.7721 11.8833C15.7721 12.6057 15.8793 13.2126 16.0937 13.7041C16.3114 14.1956 16.6149 14.5667 17.0041 14.8174C17.3934 15.0681 17.8436 15.1934 18.3549 15.1934C18.6419 15.1934 18.9074 15.1555 19.1515 15.0796C19.3989 15.0037 19.6183 14.8932 19.8096 14.7481C20.0009 14.5997 20.1593 14.4199 20.2846 14.2088C20.3766 14.0579 20.4483 13.8919 20.4998 13.7107C20.5362 13.5825 20.6489 13.4868 20.7821 13.4874L22.4103 13.4949C22.5747 13.4956 22.7025 13.6398 22.6697 13.801C22.5971 14.158 22.4734 14.5051 22.2984 14.8421C22.0774 15.2709 21.7789 15.6552 21.4028 15.995C21.0301 16.3314 20.5848 16.5986 20.0669 16.7965C19.7484 16.917 19.404 17.0002 19.0337 17.0461C19.075 17.0942 19.0999 17.1567 19.0999 17.225V18.875C19.0999 19.0269 18.9768 19.15 18.8249 19.15H17.7249C17.5731 19.15 17.4499 19.0269 17.4499 18.875V17.225C17.4499 17.1501 17.4799 17.0822 17.5285 17.0326C16.9376 16.9465 16.3934 16.7606 15.8958 16.4749C15.1866 16.0659 14.6258 15.4738 14.2135 14.6986C13.8045 13.9234 13.6 12.985 13.6 11.8833C13.6 10.7782 13.8078 9.83812 14.2234 9.06295C14.639 8.28777 15.2031 7.69732 15.9156 7.29159C16.3879 7.02045 16.8994 6.83918 17.4499 6.74778V5.12498Z"/>
</mask>
<path d="M19.0999 6.72993H17.9999V7.68869L18.9497 7.81962L19.0999 6.72993ZM19.9531 6.92545L19.6094 7.97037L19.6114 7.97103L19.9531 6.92545ZM21.294 7.64784L20.5998 8.50114L20.6042 8.50467L21.294 7.64784ZM22.244 8.80071L21.2746 9.32055L21.2775 9.32597L22.244 8.80071ZM22.6738 10.0582L23.7566 9.86454V9.86454L22.6738 10.0582ZM20.5073 10.1296L19.438 10.3878L19.438 10.3879L20.5073 10.1296ZM20.3094 9.61711L19.3464 10.1489L19.3498 10.155L20.3094 9.61711ZM19.8393 9.05305L19.1468 9.90768L19.1468 9.90768L19.8393 9.05305ZM19.1763 8.6968L18.8284 9.74036L18.8326 9.74172L19.1763 8.6968ZM16.9992 8.96399L17.6058 9.88164L17.6112 9.87805L16.9992 8.96399ZM16.0937 10.0921L17.102 10.5319L17.103 10.5295L16.0937 10.0921ZM16.0937 13.7041L15.0855 14.1439L15.088 14.1496L16.0937 13.7041ZM17.0041 14.8174L16.4085 15.7422H16.4085L17.0041 14.8174ZM19.1515 15.0796L18.829 14.0279L18.8251 14.0292L19.1515 15.0796ZM19.8096 14.7481L20.4745 15.6245L20.4839 15.6172L19.8096 14.7481ZM20.2846 14.2088L19.3452 13.6363L19.3388 13.6472L20.2846 14.2088ZM20.4998 13.7107L21.5579 14.0114L21.5579 14.0114L20.4998 13.7107ZM20.7821 13.4874L20.7871 12.3874L20.7821 13.4874ZM22.4103 13.4949L22.4153 12.3949L22.4153 12.3949L22.4103 13.4949ZM22.6697 13.801L21.5918 13.5818L21.5918 13.5818L22.6697 13.801ZM22.2984 14.8421L21.3221 14.3353L21.3206 14.3382L22.2984 14.8421ZM21.4028 15.995L22.1399 16.8115L22.1403 16.8112L21.4028 15.995ZM20.0669 16.7965L20.456 17.8254L20.4596 17.8241L20.0669 16.7965ZM19.0337 17.0461L18.8984 15.9544L16.8642 16.2066L18.1989 17.7623L19.0337 17.0461ZM17.5285 17.0326L18.3143 17.8023L19.8284 16.2564L17.6872 15.9441L17.5285 17.0326ZM15.8958 16.4749L15.3462 17.4278L15.3482 17.4289L15.8958 16.4749ZM14.2135 14.6986L13.2406 15.212L13.2424 15.2152L14.2135 14.6986ZM14.2234 9.06295L15.1929 9.58273H15.1929L14.2234 9.06295ZM15.9156 7.29159L16.4599 8.24748L16.4633 8.24557L15.9156 7.29159ZM17.4499 6.74778L17.6301 7.83292L18.5499 7.68021V6.74778H17.4499ZM17.7249 3.74998C16.9655 3.74998 16.3499 4.36559 16.3499 5.12498H18.5499C18.5499 5.58061 18.1806 5.94998 17.7249 5.94998V3.74998ZM18.8249 3.74998H17.7249V5.94998H18.8249V3.74998ZM20.1999 5.12498C20.1999 4.36559 19.5843 3.74998 18.8249 3.74998V5.94998C18.3693 5.94998 17.9999 5.58061 17.9999 5.12498H20.1999ZM20.1999 6.72993V5.12498H17.9999V6.72993H20.1999ZM18.9497 7.81962C19.1841 7.85193 19.4035 7.90265 19.6094 7.97036L20.2968 5.88053C19.9591 5.76943 19.6097 5.6898 19.2501 5.64023L18.9497 7.81962ZM19.6114 7.97103C19.9953 8.09649 20.3212 8.27451 20.5998 8.50112L21.9882 6.79456C21.4883 6.38784 20.9202 6.08426 20.2948 5.87986L19.6114 7.97103ZM20.6042 8.50467C20.8747 8.72245 21.0977 8.9908 21.2746 9.32054L23.2134 8.28087C22.902 7.7002 22.4918 7.19997 21.9838 6.79102L20.6042 8.50467ZM21.2775 9.32597C21.4191 9.5866 21.5266 9.89199 21.5909 10.2519L23.7566 9.86454C23.655 9.29681 23.4759 8.76385 23.2105 8.27544L21.2775 9.32597ZM21.5909 10.2519C21.4911 9.69393 21.9365 9.26425 22.4096 9.26425V11.4642C23.212 11.4642 23.9144 10.7467 23.7566 9.86454L21.5909 10.2519ZM22.4096 9.26425H20.7907V11.4642H22.4096V9.26425ZM20.7907 9.26425C21.2252 9.26425 21.505 9.57526 21.5766 9.87137L19.438 10.3879C19.5739 10.9504 20.0821 11.4642 20.7907 11.4642V9.26425ZM21.5766 9.87137C21.5097 9.59476 21.4088 9.32874 21.2689 9.07921L19.3498 10.155C19.3837 10.2154 19.4147 10.291 19.438 10.3878L21.5766 9.87137ZM21.2723 9.08535C21.0835 8.74351 20.836 8.44493 20.5318 8.19842L19.1468 9.90768C19.2252 9.97124 19.2911 10.0487 19.3464 10.1489L21.2723 9.08535ZM20.5318 8.19842C20.2295 7.95345 19.8884 7.77306 19.52 7.65188L18.8326 9.74172C18.9655 9.78547 19.0664 9.84258 19.1468 9.90768L20.5318 8.19842ZM19.5241 7.65325C19.1527 7.52942 18.765 7.4731 18.3698 7.4731V9.6731C18.5551 9.6731 18.7051 9.69925 18.8284 9.74035L19.5241 7.65325ZM18.3698 7.4731C17.6544 7.4731 16.9788 7.6539 16.3872 8.04992L17.6112 9.87805C17.7981 9.7529 18.0361 9.6731 18.3698 9.6731V7.4731ZM16.3926 8.04635C15.799 8.43874 15.3701 8.99542 15.0844 9.65474L17.103 10.5295C17.2461 10.1992 17.4209 10.0038 17.6058 9.88163L16.3926 8.04635ZM15.0855 9.65228C14.7949 10.3184 14.6721 11.0741 14.6721 11.8833H16.8721C16.8721 11.2872 16.9637 10.8488 17.102 10.5319L15.0855 9.65228ZM14.6721 11.8833C14.6721 12.7074 14.7934 13.4745 15.0855 14.1439L17.102 13.2643C16.9652 12.9507 16.8721 12.5039 16.8721 11.8833H14.6721ZM15.088 14.1496C15.3783 14.8051 15.8111 15.3574 16.4085 15.7422L17.5998 13.8926C17.4187 13.776 17.2445 13.5861 17.0995 13.2586L15.088 14.1496ZM16.4085 15.7422C16.9936 16.119 17.6552 16.2934 18.3549 16.2934V14.0934C18.032 14.0934 17.7931 14.0171 17.5998 13.8926L16.4085 15.7422ZM18.3549 16.2934C18.7392 16.2934 19.1161 16.2425 19.478 16.13L18.8251 14.0292C18.6987 14.0684 18.5446 14.0934 18.3549 14.0934V16.2934ZM19.474 16.1313C19.8353 16.0205 20.1725 15.8535 20.4744 15.6245L19.1448 13.8717C19.0641 13.9329 18.9625 13.987 18.829 14.028L19.474 16.1313ZM20.4839 15.6172C20.7858 15.383 21.0357 15.0984 21.2305 14.7704L19.3388 13.6472C19.2829 13.7414 19.2161 13.8163 19.1353 13.879L20.4839 15.6172ZM21.2239 14.7812C21.3708 14.5401 21.481 14.2818 21.5579 14.0114L19.4417 13.4099C19.4155 13.5019 19.3823 13.5757 19.3453 13.6364L21.2239 14.7812ZM21.5579 14.0114C21.4771 14.2954 21.1995 14.5894 20.7771 14.5874L20.7871 12.3874C20.0982 12.3843 19.5953 12.8696 19.4417 13.4099L21.5579 14.0114ZM20.7771 14.5874L22.4052 14.5949L22.4153 12.3949L20.7871 12.3874L20.7771 14.5874ZM22.4052 14.5949C21.9404 14.5927 21.4738 14.1618 21.5918 13.5818L23.7477 14.0202C23.9312 13.1179 23.209 12.3985 22.4153 12.3949L22.4052 14.5949ZM21.5918 13.5818C21.5404 13.8346 21.452 14.0852 21.3221 14.3353L23.2747 15.3489C23.4947 14.925 23.6539 14.4815 23.7477 14.0202L21.5918 13.5818ZM21.3206 14.3382C21.1633 14.6434 20.9482 14.9233 20.6654 15.1788L22.1403 16.8112C22.6096 16.3872 22.9915 15.8984 23.2762 15.346L21.3206 14.3382ZM20.6658 15.1784C20.4038 15.4149 20.0785 15.6145 19.6742 15.769L20.4596 17.8241C21.0911 17.5827 21.6564 17.248 22.1399 16.8115L20.6658 15.1784ZM19.6778 15.7677C19.4485 15.8544 19.1901 15.9183 18.8984 15.9544L19.1691 18.1377C19.6179 18.0821 20.0483 17.9796 20.456 17.8254L19.6778 15.7677ZM20.1999 17.225C20.1999 16.8842 20.0745 16.5698 19.8686 16.3298L18.1989 17.7623C18.0755 17.6186 17.9999 17.4292 17.9999 17.225H20.1999ZM20.1999 18.875V17.225H17.9999V18.875H20.1999ZM18.8249 20.25C19.5843 20.25 20.1999 19.6344 20.1999 18.875H17.9999C17.9999 18.4194 18.3693 18.05 18.8249 18.05V20.25ZM17.7249 20.25H18.8249V18.05H17.7249V20.25ZM16.3499 18.875C16.3499 19.6344 16.9655 20.25 17.7249 20.25V18.05C18.1806 18.05 18.5499 18.4194 18.5499 18.875H16.3499ZM16.3499 17.225V18.875H18.5499V17.225H16.3499ZM16.7426 16.263C16.5008 16.5098 16.3499 16.8509 16.3499 17.225H18.5499C18.5499 17.4494 18.4589 17.6547 18.3143 17.8023L16.7426 16.263ZM17.6872 15.9441C17.2276 15.8771 16.8161 15.7349 16.4435 15.5209L15.3482 17.4289C15.9706 17.7862 16.6476 18.0158 17.3697 18.1211L17.6872 15.9441ZM16.4454 15.522C15.9279 15.2236 15.5075 14.7889 15.1847 14.182L13.2424 15.2152C13.7442 16.1587 14.4454 16.9082 15.3462 17.4278L16.4454 15.522ZM15.1864 14.1853C14.8796 13.6039 14.7 12.8511 14.7 11.8833H12.5C12.5 13.1189 12.7294 14.243 13.2406 15.212L15.1864 14.1853ZM14.7 11.8833C14.7 10.914 14.8822 10.1622 15.1929 9.58273L13.254 8.54316C12.7334 9.51404 12.5 10.6424 12.5 11.8833H14.7ZM15.1929 9.58273C15.5181 8.9762 15.9405 8.54324 16.4599 8.24748L15.3713 6.33571C14.4657 6.8514 13.76 7.59934 13.254 8.54316L15.1929 9.58273ZM16.4633 8.24557C16.819 8.04133 17.2056 7.9034 17.6301 7.83292L17.2698 5.66263C16.5931 5.77496 15.9568 5.99957 15.3679 6.33761L16.4633 8.24557ZM16.3499 5.12498V6.74778H18.5499V5.12498H16.3499Z" fill="#F2B90C" mask="url(#path-2-outside-1_21_136)"/>
<mask id="path-4-outside-2_21_136" maskUnits="userSpaceOnUse" x="12.6" y="3.84998" width="11" height="16" fill="black">
<rect fill="white" x="12.6" y="3.84998" width="11" height="16"/>
<path fill-rule="evenodd" clip-rule="evenodd" d="M17.4499 5.12498C17.4499 4.9731 17.5731 4.84998 17.7249 4.84998H18.8249C18.9768 4.84998 19.0999 4.9731 19.0999 5.12498V6.72993C19.3969 6.77087 19.6813 6.83604 19.9531 6.92545C20.4578 7.09038 20.9048 7.33117 21.294 7.64784C21.6832 7.96121 21.9999 8.3455 22.244 8.80071C22.4475 9.17523 22.5908 9.5944 22.6738 10.0582C22.7027 10.2203 22.5743 10.3642 22.4096 10.3642H20.7907C20.6537 10.3642 20.5395 10.2628 20.5073 10.1296C20.4622 9.9429 20.3962 9.77207 20.3094 9.61711C20.1873 9.39611 20.0306 9.20808 19.8393 9.05305C19.648 8.89802 19.427 8.77926 19.1763 8.6968C18.9289 8.61433 18.66 8.5731 18.3698 8.5731C17.8453 8.5731 17.3884 8.7034 16.9992 8.96399C16.61 9.22128 16.3081 9.59732 16.0937 10.0921C15.8793 10.5836 15.7721 11.1807 15.7721 11.8833C15.7721 12.6057 15.8793 13.2126 16.0937 13.7041C16.3114 14.1956 16.6149 14.5667 17.0041 14.8174C17.3934 15.0681 17.8436 15.1934 18.3549 15.1934C18.6419 15.1934 18.9074 15.1555 19.1515 15.0796C19.3989 15.0037 19.6183 14.8932 19.8096 14.7481C20.0009 14.5997 20.1593 14.4199 20.2846 14.2088C20.3766 14.0579 20.4483 13.8919 20.4998 13.7107C20.5362 13.5825 20.6489 13.4868 20.7821 13.4874L22.4103 13.4949C22.5747 13.4956 22.7025 13.6398 22.6697 13.801C22.5971 14.158 22.4734 14.5051 22.2984 14.8421C22.0774 15.2709 21.7789 15.6552 21.4028 15.995C21.0301 16.3314 20.5848 16.5986 20.0669 16.7965C19.7675 16.9098 19.4452 16.9901 19.0999 17.0374V18.8751C19.0999 19.0269 18.9768 19.1501 18.8249 19.1501H17.7249C17.5731 19.1501 17.4499 19.0269 17.4499 18.8751V17.0206C16.8893 16.9297 16.3713 16.7479 15.8958 16.4749C15.1866 16.0659 14.6258 15.4738 14.2135 14.6986C13.8045 13.9234 13.6 12.985 13.6 11.8833C13.6 10.7782 13.8078 9.83812 14.2234 9.06295C14.639 8.28777 15.2031 7.69732 15.9156 7.29159C16.3879 7.02045 16.8994 6.83918 17.4499 6.74778V5.12498Z"/>
</mask>
<path fill-rule="evenodd" clip-rule="evenodd" d="M17.4499 5.12498C17.4499 4.9731 17.5731 4.84998 17.7249 4.84998H18.8249C18.9768 4.84998 19.0999 4.9731 19.0999 5.12498V6.72993C19.3969 6.77087 19.6813 6.83604 19.9531 6.92545C20.4578 7.09038 20.9048 7.33117 21.294 7.64784C21.6832 7.96121 21.9999 8.3455 22.244 8.80071C22.4475 9.17523 22.5908 9.5944 22.6738 10.0582C22.7027 10.2203 22.5743 10.3642 22.4096 10.3642H20.7907C20.6537 10.3642 20.5395 10.2628 20.5073 10.1296C20.4622 9.9429 20.3962 9.77207 20.3094 9.61711C20.1873 9.39611 20.0306 9.20808 19.8393 9.05305C19.648 8.89802 19.427 8.77926 19.1763 8.6968C18.9289 8.61433 18.66 8.5731 18.3698 8.5731C17.8453 8.5731 17.3884 8.7034 16.9992 8.96399C16.61 9.22128 16.3081 9.59732 16.0937 10.0921C15.8793 10.5836 15.7721 11.1807 15.7721 11.8833C15.7721 12.6057 15.8793 13.2126 16.0937 13.7041C16.3114 14.1956 16.6149 14.5667 17.0041 14.8174C17.3934 15.0681 17.8436 15.1934 18.3549 15.1934C18.6419 15.1934 18.9074 15.1555 19.1515 15.0796C19.3989 15.0037 19.6183 14.8932 19.8096 14.7481C20.0009 14.5997 20.1593 14.4199 20.2846 14.2088C20.3766 14.0579 20.4483 13.8919 20.4998 13.7107C20.5362 13.5825 20.6489 13.4868 20.7821 13.4874L22.4103 13.4949C22.5747 13.4956 22.7025 13.6398 22.6697 13.801C22.5971 14.158 22.4734 14.5051 22.2984 14.8421C22.0774 15.2709 21.7789 15.6552 21.4028 15.995C21.0301 16.3314 20.5848 16.5986 20.0669 16.7965C19.7675 16.9098 19.4452 16.9901 19.0999 17.0374V18.8751C19.0999 19.0269 18.9768 19.1501 18.8249 19.1501H17.7249C17.5731 19.1501 17.4499 19.0269 17.4499 18.8751V17.0206C16.8893 16.9297 16.3713 16.7479 15.8958 16.4749C15.1866 16.0659 14.6258 15.4738 14.2135 14.6986C13.8045 13.9234 13.6 12.985 13.6 11.8833C13.6 10.7782 13.8078 9.83812 14.2234 9.06295C14.639 8.28777 15.2031 7.69732 15.9156 7.29159C16.3879 7.02045 16.8994 6.83918 17.4499 6.74778V5.12498Z" fill="white"/>
<path d="M19.0999 6.72993H18.5499V7.20931L19.0248 7.27478L19.0999 6.72993ZM19.9531 6.92545L19.7812 7.44791L19.7823 7.44824L19.9531 6.92545ZM21.294 7.64784L20.9469 8.07449L20.9491 8.07625L21.294 7.64784ZM22.244 8.80071L21.7593 9.06063L21.7607 9.06334L22.244 8.80071ZM22.6738 10.0582L23.2152 9.96139V9.96139L22.6738 10.0582ZM20.5073 10.1296L19.9727 10.2587L19.9727 10.2587L20.5073 10.1296ZM20.3094 9.61711L19.8279 9.883L19.8296 9.88607L20.3094 9.61711ZM19.8393 9.05305L19.493 9.48036L19.493 9.48036L19.8393 9.05305ZM19.1763 8.6968L19.0024 9.21858L19.0044 9.21926L19.1763 8.6968ZM16.9992 8.96399L17.3025 9.42282L17.3052 9.42102L16.9992 8.96399ZM16.0937 10.0921L16.5978 10.312L16.5984 10.3108L16.0937 10.0921ZM16.0937 13.7041L15.5896 13.924L15.5909 13.9268L16.0937 13.7041ZM17.0041 14.8174L16.7063 15.2798H16.7063L17.0041 14.8174ZM19.1515 15.0796L18.9903 14.5538L18.9883 14.5544L19.1515 15.0796ZM19.8096 14.7481L20.142 15.1863L20.1468 15.1826L19.8096 14.7481ZM20.2846 14.2088L19.8149 13.9226L19.8117 13.928L20.2846 14.2088ZM20.4998 13.7107L21.0288 13.8611L21.0288 13.861L20.4998 13.7107ZM20.7821 13.4874L20.7846 12.9374L20.7821 13.4874ZM22.4103 13.4949L22.4128 12.9449H22.4128L22.4103 13.4949ZM22.6697 13.801L22.1308 13.6914L22.1308 13.6914L22.6697 13.801ZM22.2984 14.8421L21.8103 14.5887L21.8095 14.5901L22.2984 14.8421ZM21.4028 15.995L21.7714 16.4033L21.7716 16.4031L21.4028 15.995ZM20.0669 16.7965L20.2615 17.311L20.2632 17.3103L20.0669 16.7965ZM19.0999 17.0374L19.0252 16.4925L18.5499 16.5577V17.0374H19.0999ZM17.4499 17.0206H17.9999V16.5525L17.5379 16.4776L17.4499 17.0206ZM15.8958 16.4749L15.621 16.9514L15.622 16.9519L15.8958 16.4749ZM14.2135 14.6986L13.7271 14.9553L13.7279 14.9569L14.2135 14.6986ZM14.2234 9.06295L14.7081 9.32284H14.7081L14.2234 9.06295ZM15.9156 7.29159L16.1878 7.76954L16.1894 7.76858L15.9156 7.29159ZM17.4499 6.74778L17.54 7.29035L17.9999 7.21399V6.74778H17.4499ZM17.7249 4.29998C17.2693 4.29998 16.8999 4.66934 16.8999 5.12498H17.9999C17.9999 5.27685 17.8768 5.39998 17.7249 5.39998V4.29998ZM18.8249 4.29998H17.7249V5.39998H18.8249V4.29998ZM19.6499 5.12498C19.6499 4.66934 19.2806 4.29998 18.8249 4.29998V5.39998C18.6731 5.39998 18.5499 5.27685 18.5499 5.12498H19.6499ZM19.6499 6.72993V5.12498H18.5499V6.72993H19.6499ZM19.0248 7.27478C19.2905 7.3114 19.5424 7.36935 19.7812 7.4479L20.125 6.40299C19.8202 6.30274 19.5033 6.23034 19.175 6.18508L19.0248 7.27478ZM19.7823 7.44824C20.2266 7.59344 20.613 7.80284 20.9469 8.07448L21.6411 7.2212C21.1965 6.85951 20.689 6.58732 20.1239 6.40265L19.7823 7.44824ZM20.9491 8.07625C21.2789 8.34183 21.5488 8.66815 21.7593 9.06062L22.7287 8.54079C22.451 8.02285 22.0875 7.58059 21.6389 7.21943L20.9491 8.07625ZM21.7607 9.06334C21.9333 9.38091 22.0587 9.7432 22.1323 10.1551L23.2152 9.96139C23.1229 9.44561 22.9617 8.96954 22.7272 8.53807L21.7607 9.06334ZM22.1323 10.1551C22.0969 9.95712 22.2554 9.81425 22.4096 9.81425V10.9142C22.8932 10.9142 23.3086 10.4835 23.2152 9.96139L22.1323 10.1551ZM22.4096 9.81425H20.7907V10.9142H22.4096V9.81425ZM20.7907 9.81425C20.9395 9.81425 21.0223 9.91903 21.0419 10.0005L19.9727 10.2587C20.0567 10.6066 20.3679 10.9142 20.7907 10.9142V9.81425ZM21.0419 10.0005C20.986 9.76883 20.9025 9.55041 20.7891 9.34816L19.8296 9.88607C19.89 9.99373 19.9384 10.117 19.9727 10.2587L21.0419 10.0005ZM20.7908 9.35123C20.6354 9.06981 20.4333 8.82651 20.1856 8.62574L19.493 9.48036C19.6279 9.58966 19.7392 9.7224 19.8279 9.88299L20.7908 9.35123ZM20.1856 8.62574C19.9388 8.42573 19.6577 8.27616 19.3481 8.17434L19.0044 9.21926C19.1963 9.28237 19.3572 9.3703 19.493 9.48036L20.1856 8.62574ZM19.3502 8.17502C19.0408 8.07188 18.7125 8.0231 18.3698 8.0231V9.1231C18.6076 9.1231 18.817 9.15679 19.0024 9.21858L19.3502 8.17502ZM18.3698 8.0231C17.7499 8.0231 17.1836 8.17865 16.6932 8.50696L17.3052 9.42102C17.5933 9.22815 17.9407 9.1231 18.3698 9.1231V8.0231ZM16.6959 8.50517C16.2045 8.83001 15.8391 9.29637 15.5891 9.87343L16.5984 10.3108C16.7771 9.89827 17.0154 9.61255 17.3025 9.42281L16.6959 8.50517ZM15.5896 9.87219C15.3371 10.451 15.2221 11.1274 15.2221 11.8833H16.3221C16.3221 11.2339 16.4215 10.7162 16.5978 10.312L15.5896 9.87219ZM15.2221 11.8833C15.2221 12.6565 15.3364 13.3435 15.5896 13.924L16.5978 13.4842C16.4223 13.0817 16.3221 12.5548 16.3221 11.8833H15.2221ZM15.5909 13.9268C15.8449 14.5003 16.213 14.962 16.7063 15.2798L17.302 14.355C17.0168 14.1713 16.778 13.8908 16.5966 13.4813L15.5909 13.9268ZM16.7063 15.2798C17.1935 15.5935 17.7494 15.7434 18.3549 15.7434V14.6434C17.9378 14.6434 17.5933 14.5426 17.302 14.355L16.7063 15.2798ZM18.3549 15.7434C18.6906 15.7434 19.0118 15.699 19.3148 15.6048L18.9883 14.5544C18.8031 14.612 18.5932 14.6434 18.3549 14.6434V15.7434ZM19.3128 15.6054C19.6171 15.5121 19.8954 15.3734 20.142 15.1863L19.4772 14.3099C19.3412 14.4131 19.1807 14.4954 18.9903 14.5538L19.3128 15.6054ZM20.1468 15.1826C20.3933 14.9913 20.5975 14.7592 20.7575 14.4896L19.8117 13.928C19.7211 14.0806 19.6085 14.208 19.4725 14.3136L20.1468 15.1826ZM20.7543 14.495C20.8737 14.299 20.9646 14.0868 21.0288 13.8611L19.9707 13.5603C19.9319 13.6969 19.8794 13.8168 19.8149 13.9226L20.7543 14.495ZM21.0288 13.861C21.0067 13.9389 20.9242 14.0381 20.7796 14.0374L20.7846 12.9374C20.3735 12.9356 20.0657 13.226 19.9707 13.5603L21.0288 13.861ZM20.7796 14.0374L22.4078 14.0449L22.4128 12.9449L20.7846 12.9374L20.7796 14.0374ZM22.4078 14.0449C22.2575 14.0442 22.0882 13.9008 22.1308 13.6914L23.2087 13.9106C23.3168 13.3788 22.8919 12.9471 22.4128 12.9449L22.4078 14.0449ZM22.1308 13.6914C22.0688 13.9963 21.9627 14.2951 21.8103 14.5887L22.7866 15.0955C22.984 14.7151 23.1255 14.3198 23.2087 13.9106L22.1308 13.6914ZM21.8095 14.5901C21.6204 14.9572 21.3635 15.2892 21.0341 15.5869L21.7716 16.4031C22.1942 16.0212 22.5345 15.5847 22.7873 15.0941L21.8095 14.5901ZM21.0343 15.5867C20.717 15.8732 20.3316 16.1066 19.8706 16.2828L20.2632 17.3103C20.8379 17.0907 21.3432 16.7897 21.7714 16.4033L21.0343 15.5867ZM19.8723 16.2821C19.6148 16.3795 19.333 16.4503 19.0252 16.4925L19.1747 17.5823C19.5573 17.5299 19.9201 17.4401 20.2615 17.311L19.8723 16.2821ZM19.6499 18.8751V17.0374H18.5499V18.8751H19.6499ZM18.8249 19.7001C19.2806 19.7001 19.6499 19.3307 19.6499 18.8751H18.5499C18.5499 18.7232 18.6731 18.6001 18.8249 18.6001V19.7001ZM17.7249 19.7001H18.8249V18.6001H17.7249V19.7001ZM16.8999 18.8751C16.8999 19.3307 17.2693 19.7001 17.7249 19.7001V18.6001C17.8768 18.6001 17.9999 18.7232 17.9999 18.8751H16.8999ZM16.8999 17.0206V18.8751H17.9999V17.0206H16.8999ZM17.5379 16.4776C17.0403 16.397 16.5855 16.2367 16.1696 15.9979L15.622 16.9519C16.157 17.259 16.7383 17.4625 17.362 17.5635L17.5379 16.4776ZM16.1706 15.9985C15.5572 15.6447 15.0667 15.1313 14.6991 14.4403L13.7279 14.9569C14.185 15.8163 14.816 16.4871 15.621 16.9514L16.1706 15.9985ZM14.7 14.442C14.342 13.7637 14.15 12.9181 14.15 11.8833H13.05C13.05 13.0519 13.2669 14.0832 13.7271 14.9553L14.7 14.442ZM14.15 11.8833C14.15 10.8461 14.345 10.0002 14.7081 9.32284L13.7387 8.80305C13.2706 9.67608 13.05 10.7103 13.05 11.8833H14.15ZM14.7081 9.32284C15.0786 8.63199 15.5718 8.12028 16.1878 7.76953L15.6434 6.81365C14.8344 7.27436 14.1995 7.94356 13.7387 8.80305L14.7081 9.32284ZM16.1894 7.76858C16.6035 7.53089 17.0525 7.37129 17.54 7.29035L17.3599 6.2052C16.7462 6.30707 16.1724 6.51001 15.6418 6.8146L16.1894 7.76858ZM16.8999 5.12498V6.74778H17.9999V5.12498H16.8999Z" fill="#E1B511" mask="url(#path-4-outside-2_21_136)"/>
<defs>
<linearGradient id="paint0_linear_21_136" x1="12.4994" y1="2.47235" x2="23.5005" y2="21.5276" gradientUnits="userSpaceOnUse">
<stop stop-color="#FFDA1C"/>
<stop offset="1" stop-color="#FEB705"/>
</linearGradient>
</defs>
</svg>
