<svg width="36" height="24" viewBox="0 0 36 24" fill="none" xmlns="http://www.w3.org/2000/svg">
<path d="M23.9585 19.9455C28.3463 19.9455 31.9034 16.3879 31.9034 12C31.9034 7.61215 28.3463 4.05457 23.9585 4.05457C19.5706 4.05457 16.0137 7.61215 16.0137 12C16.0137 16.3879 19.5706 19.9455 23.9585 19.9455Z" fill="#F79E1B"/>
<path d="M12.0413 19.9455C16.4291 19.9455 19.9861 16.3879 19.9861 12C19.9861 7.61212 16.4291 4.05453 12.0413 4.05453C7.65342 4.05453 4.09644 7.61212 4.09644 12C4.09644 16.3879 7.65342 19.9455 12.0413 19.9455Z" fill="#EB001B"/>
<path fill-rule="evenodd" clip-rule="evenodd" d="M17.9999 6.7446C16.7637 8.14528 16.0137 9.98515 16.0137 12.0001C16.0137 14.0151 16.7637 15.8549 17.9999 17.2556C19.2361 15.8549 19.9862 14.0151 19.9862 12.0001C19.9862 9.98515 19.2361 8.14528 17.9999 6.7446Z" fill="#FF5A00"/>
</svg>
