<svg width="36" height="24" viewBox="0 0 36 24" fill="none" xmlns="http://www.w3.org/2000/svg">
<path d="M23.312 8.64714V14.2666C23.312 14.3111 23.2946 14.3544 23.2638 14.3856C23.233 14.4173 23.1912 14.4352 23.1476 14.4352H22.0524C22.0088 14.4352 21.9671 14.4173 21.9362 14.3856C21.9054 14.3544 21.8881 14.3111 21.8881 14.2666V8.64714C21.8881 8.60268 21.9054 8.55933 21.9362 8.52815C21.9671 8.49639 22.0088 8.47849 22.0524 8.47849H23.1476L23.312 8.64714ZM32.0739 8.53453H30.8143L30.65 8.64714L29.6643 11.9625L28.5691 8.64714C28.5691 8.59113 28.5143 8.53453 28.4048 8.53453H27.5286L27.3643 8.64714L26.2691 11.9625L25.2834 8.64714C25.2834 8.59113 25.2286 8.53453 25.1191 8.53453H23.9143C23.8596 8.53453 23.8048 8.53451 23.8048 8.5911C23.8048 8.64712 23.75 8.70315 23.8048 8.70315L25.6667 14.3792C25.6667 14.4352 25.7215 14.4913 25.831 14.4913H26.8167L26.981 14.3792L28.0762 11.0633L29.1714 14.3792C29.1714 14.4352 29.2262 14.4913 29.3357 14.4913H30.3214L30.4857 14.3792L32.3477 8.70315V8.5911L32.0739 8.53453ZM33.9358 8.53453H32.8405C32.7969 8.53453 32.7551 8.55243 32.7244 8.58419C32.6935 8.61595 32.6762 8.65868 32.6762 8.70315V14.3226C32.6762 14.3677 32.6935 14.4104 32.7244 14.4422C32.7551 14.4734 32.7969 14.4913 32.8405 14.4913H33.9358C33.9793 14.4913 34.0211 14.4734 34.0519 14.4422C34.0827 14.4104 34.1 14.3677 34.1 14.3226V8.70315C34.1 8.65868 34.0827 8.61595 34.0519 8.58419C34.0211 8.55243 33.9793 8.53453 33.9358 8.53453ZM21.231 14.2666C21.2857 14.3226 21.231 14.4352 21.1214 14.4352H19.5881L19.3691 14.154C18.8836 14.4889 18.311 14.6651 17.7262 14.6599C16.9274 14.6599 16.1613 14.3342 15.5965 13.755C15.0316 13.1752 14.7143 12.3892 14.7143 11.5692C14.7143 10.7498 15.0316 9.96323 15.5965 9.38401C16.1613 8.80422 16.9274 8.47849 17.7262 8.47849C18.525 8.47849 19.2911 8.80422 19.8559 9.38401C20.4208 9.96323 20.7381 10.7498 20.7381 11.5692C20.7431 12.1692 20.5713 12.7571 20.2453 13.2548L21.231 14.2666ZM18.4929 13.0302L17.8905 12.2997C17.882 12.2778 17.8781 12.2541 17.8791 12.2304C17.8801 12.2067 17.886 12.1836 17.8963 12.1623C17.9066 12.1409 17.9212 12.1224 17.9391 12.1074C17.957 12.0924 17.9777 12.0814 18 12.0751H19.2596C19.3219 11.8937 19.3588 11.7049 19.3691 11.5132C19.3764 11.2914 19.3411 11.0708 19.2652 10.8635C19.1893 10.6562 19.0744 10.4662 18.9269 10.3045C18.7794 10.1422 18.6023 10.0123 18.4056 9.92047C18.209 9.82923 17.9967 9.77842 17.781 9.77092C17.5652 9.77842 17.3529 9.82923 17.1563 9.92047C16.9597 10.0123 16.7826 10.1422 16.6351 10.3045C16.4876 10.4662 16.3726 10.6562 16.2968 10.8635C16.2208 11.0708 16.1856 11.2914 16.1929 11.5132C16.1856 11.7343 16.2208 11.9549 16.2968 12.1628C16.3726 12.3701 16.4876 12.5602 16.6351 12.7218C16.7826 12.8835 16.9597 13.0141 17.1563 13.1053C17.3529 13.1971 17.5652 13.2479 17.781 13.2548L18.4929 13.0302ZM11.2643 14.2666C11.3191 14.4912 11.2096 14.6038 11.1548 14.6038C11.1 14.6038 10.9905 14.4912 10.881 14.3226C10.8281 14.2516 10.791 14.1696 10.7721 14.0824C10.7532 13.9952 10.753 13.9045 10.7715 13.8168C10.8262 13.7607 10.881 13.7047 10.9905 13.7607C11.1 13.8173 11.2096 14.098 11.2643 14.2666ZM10.1691 14.7725C10.3881 14.9971 10.4977 15.2218 10.3334 15.3904C10.3012 15.4487 10.2527 15.4961 10.1942 15.5261C10.1357 15.5561 10.0697 15.5677 10.0048 15.559L9.62147 15.447C9.56718 15.4129 9.52069 15.3679 9.4851 15.3142C9.44946 15.2605 9.42567 15.1993 9.41522 15.1352C9.40483 15.0711 9.4081 15.0058 9.42477 14.9429C9.44149 14.8805 9.47121 14.8222 9.51194 14.7725L9.78575 14.6599C9.85354 14.6408 9.92517 14.6414 9.99279 14.6611C10.0604 14.6807 10.1214 14.7194 10.1691 14.7725ZM9.78575 16.7394C11.0244 16.7694 12.203 17.2932 13.0714 18.2004C13.181 18.3125 13.3453 18.2004 13.2357 18.0318C12.4093 16.9409 11.22 16.2006 9.89528 15.9523C9.36398 15.8443 8.86257 15.6174 8.42708 15.287C7.99153 14.9567 7.63264 14.5311 7.37623 14.042C7.26669 13.8734 7.21195 13.9294 7.21195 14.098C7.20444 14.4173 7.2228 14.7373 7.26669 15.0531H7.10242C6.42006 15.0531 5.75307 14.8458 5.18567 14.4566C4.61833 14.0674 4.17617 13.5147 3.91501 12.8679C3.65391 12.2212 3.58558 11.5091 3.7187 10.8225C3.8518 10.1359 4.18041 9.5047 4.6629 9.0098C5.14539 8.51432 5.76013 8.17762 6.42932 8.04076C7.09857 7.90447 7.79229 7.97435 8.42267 8.2423C9.05306 8.51025 9.59187 8.96415 9.97098 9.54625C10.3501 10.1284 10.5524 10.8127 10.5524 11.5132V11.9064C10.1894 11.8504 9.82021 11.8504 9.4572 11.9064C9.34766 11.9064 9.34766 11.9625 9.4572 12.0191C10.0042 12.1011 10.5097 12.3655 10.8956 12.7721C11.2816 13.178 11.5266 13.7036 11.5929 14.2666C11.5929 14.3226 11.6476 14.3226 11.6476 14.2666C12.1535 13.4425 12.4195 12.4874 12.4143 11.5132C12.4143 10.446 12.106 9.40304 11.5283 8.51602C10.9507 7.62901 10.1296 6.9372 9.16898 6.52892C8.2084 6.12063 7.15134 6.01381 6.13156 6.2217C5.11178 6.43018 4.17504 6.94414 3.43981 7.69833C2.70458 8.4531 2.20389 9.41401 2.00104 10.4604C1.79819 11.5068 1.9023 12.5919 2.3002 13.5777C2.6981 14.5634 3.37193 15.406 4.23644 15.9985C5.10099 16.5916 6.11738 16.908 7.15716 16.908C7.92385 16.8514 8.6905 16.7394 9.78575 16.7394Z" fill="#FF8C00"/>
</svg>
