<svg width="36" height="24" viewBox="0 0 36 24" fill="none" xmlns="http://www.w3.org/2000/svg">
<g clip-path="url(#clip0_47_3)">
<path d="M8.99988 5.78864L11.6641 10.5507V13.4555L9.00299 18.2082L8.99988 5.78864Z" fill="#5B57A2"/>
<path d="M19.2294 8.81789L21.7258 7.28779L26.835 7.28302L19.2294 11.9423V8.81789Z" fill="#D90751"/>
<path d="M19.2153 5.76062L19.2294 12.0654L16.559 10.4246V1L19.2153 5.76062Z" fill="#FAB718"/>
<path d="M26.835 7.28302L21.7257 7.28778L19.2153 5.76062L16.559 1L26.835 7.28302Z" fill="#ED6F26"/>
<path d="M19.2294 18.2347V15.1758L16.559 13.5661L16.5604 23.0001L19.2294 18.2347Z" fill="#63B22F"/>
<path d="M21.7195 16.7184L11.6639 10.5507L8.99988 5.78864L26.8241 16.7122L21.7195 16.7184Z" fill="#1487C9"/>
<path d="M16.5605 23L19.2291 18.2346L21.7194 16.7185L26.8239 16.7122L16.5605 23Z" fill="#017F36"/>
<path d="M9.00305 18.2082L16.5808 13.5662L14.0332 12.0031L11.6641 13.4555L9.00305 18.2082Z" fill="#984995"/>
</g>
<defs>
<clipPath id="clip0_47_3">
<rect width="17.7833" height="22" fill="white" transform="translate(9 1)"/>
</clipPath>
</defs>
</svg>
