<svg width="36" height="24" viewBox="0 0 36 24" fill="none" xmlns="http://www.w3.org/2000/svg">
<mask id="mask0_12_687" style="mask-type:luminance" maskUnits="userSpaceOnUse" x="2" y="6" width="32" height="12">
<path d="M18.5473 10.1458C18.5291 11.5783 19.8239 12.3778 20.7993 12.853C21.8015 13.3407 22.1381 13.6534 22.1343 14.0895C22.1266 14.757 21.3348 15.0515 20.5937 15.063C19.3008 15.0831 18.5492 14.714 17.9515 14.4347L17.4858 16.6141C18.0854 16.8905 19.1956 17.1314 20.347 17.142C23.0495 17.142 24.8176 15.808 24.8272 13.7395C24.8377 11.1145 21.1962 10.9692 21.221 9.79579C21.2296 9.44006 21.5691 9.06041 22.3131 8.96383C22.6813 8.91506 23.6978 8.87776 24.8502 9.4085L25.3025 7.29989C24.6828 7.07421 23.8862 6.85809 22.8945 6.85809C20.3508 6.85809 18.5616 8.21027 18.5473 10.1458ZM29.6488 7.03978C29.1553 7.03978 28.7394 7.32762 28.5538 7.76943L24.6933 16.987H27.3939L27.9313 15.5019H31.2314L31.5432 16.987H33.9234L31.8463 7.03978H29.6488ZM30.0265 9.72694L30.8059 13.4622H28.6715L30.0265 9.72694ZM15.2729 7.03978L13.1442 16.987H15.7176L17.8454 7.03978H15.2729ZM11.466 7.03978L8.78741 13.8103L7.70394 8.05344C7.57675 7.41082 7.0747 7.03978 6.51719 7.03978H2.13836L2.07715 7.32858C2.97606 7.52366 3.99737 7.83828 4.61609 8.17489C4.99478 8.38049 5.10283 8.56027 5.22715 9.04893L7.27935 16.987H9.99902L14.1684 7.03978H11.466Z" fill="white"/>
</mask>
<g mask="url(#mask0_12_687)">
<path d="M-1.25781 8.08623L30.1202 -3.46951L37.2585 15.914L5.88086 27.4698" fill="url(#paint0_linear_12_687)"/>
</g>
<defs>
<linearGradient id="paint0_linear_12_687" x1="4.96185" y1="16.8294" x2="31.8014" y2="6.94474" gradientUnits="userSpaceOnUse">
<stop stop-color="#222357"/>
<stop offset="1" stop-color="#254AA5"/>
</linearGradient>
</defs>
</svg>
