<svg width="36" height="24" viewBox="0 0 36 24" fill="none" xmlns="http://www.w3.org/2000/svg">
<path d="M12.0797 5.74683V18.2532H9.02202L5.09082 5.74683H12.0797Z" fill="#8B3FFD"/>
<path d="M20.5399 3.53979C15.8279 3.53979 12.0797 7.34284 12.0797 12C12.0797 16.7135 15.8815 20.4601 20.5399 20.4601C25.1983 20.4601 29.0001 16.6571 29.0001 12C29.0001 7.34284 25.1983 3.53979 20.5399 3.53979ZM20.5399 15.1585C18.8265 15.1585 17.3807 13.7121 17.3807 12C17.3807 10.2878 18.8265 8.84147 20.5399 8.84147C22.2533 8.84147 23.699 10.2878 23.699 12C23.6456 13.7121 22.2533 15.1585 20.5399 15.1585Z" fill="#8B3FFD"/>
</svg>
