<svg width="105" height="30" viewBox="0 0 105 30" fill="none" xmlns="http://www.w3.org/2000/svg">
<path d="M7.06443 22L2.32617 7.78524H5.75732L7.74521 13.9123L9.13401 18.9773H9.32463L10.7134 13.9123L12.6469 7.78524H15.9691L11.2036 22H7.06443Z" fill="black"/>
<path d="M18.295 7.78524H21.7806V10.1271H21.8896C22.1437 9.3102 22.6248 8.66572 23.3328 8.19371C24.0408 7.70355 24.8668 7.45847 25.8109 7.45847C27.6263 7.45847 29.006 8.10294 29.95 9.39189C30.9122 10.6627 31.3933 12.4872 31.3933 14.8654C31.3933 17.2618 30.9122 19.1044 29.95 20.3934C29.006 21.6823 27.6263 22.3268 25.8109 22.3268C24.8668 22.3268 24.0408 22.0817 23.3328 21.5915C22.643 21.1014 22.1619 20.4478 21.8896 19.6309H21.7806V27.4463H18.295V7.78524ZM24.6944 19.4403C25.6021 19.4403 26.3373 19.1407 26.9001 18.5416C27.4629 17.9425 27.7443 17.1347 27.7443 16.118V13.6672C27.7443 12.6506 27.4629 11.8427 26.9001 11.2436C26.3373 10.6264 25.6021 10.3178 24.6944 10.3178C23.8593 10.3178 23.1603 10.5265 22.5976 10.9441C22.0529 11.3616 21.7806 11.9153 21.7806 12.6052V17.1256C21.7806 17.8699 22.0529 18.4418 22.5976 18.8412C23.1603 19.2406 23.8593 19.4403 24.6944 19.4403Z" fill="black"/>
<path d="M34.6232 22V7.78524H38.1088V10.1544H38.245C38.5354 9.39189 38.9893 8.75649 39.6065 8.24818C40.2419 7.7217 41.1133 7.45847 42.2207 7.45847C43.6912 7.45847 44.8168 7.93955 45.5974 8.90173C46.378 9.8639 46.7684 11.2345 46.7684 13.0137V22H43.2828V13.3677C43.2828 12.351 43.1012 11.5886 42.7381 11.0802C42.375 10.5719 41.776 10.3178 40.9409 10.3178C40.5778 10.3178 40.2238 10.3722 39.8788 10.4811C39.5521 10.5719 39.2525 10.7172 38.9802 10.9168C38.726 11.0984 38.5173 11.3344 38.3539 11.6249C38.1905 11.8972 38.1088 12.224 38.1088 12.6052V22H34.6232Z" fill="black"/>
<path d="M50.6322 7.78524H54.1178V10.1271H54.2268C54.4809 9.3102 54.962 8.66572 55.67 8.19371C56.3781 7.70355 57.2041 7.45847 58.1481 7.45847C59.9635 7.45847 61.3432 8.10294 62.2873 9.39189C63.2494 10.6627 63.7305 12.4872 63.7305 14.8654C63.7305 17.2618 63.2494 19.1044 62.2873 20.3934C61.3432 21.6823 59.9635 22.3268 58.1481 22.3268C57.2041 22.3268 56.3781 22.0817 55.67 21.5915C54.9802 21.1014 54.4991 20.4478 54.2268 19.6309H54.1178V27.4463H50.6322V7.78524ZM57.0316 19.4403C57.9393 19.4403 58.6746 19.1407 59.2373 18.5416C59.8001 17.9425 60.0815 17.1347 60.0815 16.118V13.6672C60.0815 12.6506 59.8001 11.8427 59.2373 11.2436C58.6746 10.6264 57.9393 10.3178 57.0316 10.3178C56.1965 10.3178 55.4976 10.5265 54.9348 10.9441C54.3902 11.3616 54.1178 11.9153 54.1178 12.6052V17.1256C54.1178 17.8699 54.3902 18.4418 54.9348 18.8412C55.4976 19.2406 56.1965 19.4403 57.0316 19.4403Z" fill="#656565"/>
<path d="M77.4172 22C76.6548 22 76.0466 21.7822 75.5927 21.3465C75.157 20.8926 74.8847 20.2935 74.7758 19.5492H74.6124C74.3764 20.475 73.8953 21.174 73.1692 21.646C72.443 22.0999 71.5443 22.3268 70.4732 22.3268C69.0209 22.3268 67.9044 21.9455 67.1238 21.1831C66.3432 20.4206 65.9528 19.4039 65.9528 18.1332C65.9528 16.6627 66.4793 15.5734 67.5323 14.8654C68.5852 14.1392 70.0829 13.7761 72.0254 13.7761H74.449V12.7413C74.449 11.9426 74.2402 11.3253 73.8227 10.8896C73.4052 10.4539 72.7335 10.2361 71.8076 10.2361C70.9906 10.2361 70.328 10.4176 69.8197 10.7807C69.3295 11.1256 68.912 11.5432 68.5671 12.0333L66.4975 10.1816C67.0239 9.36466 67.7229 8.71111 68.5943 8.22094C69.4657 7.71262 70.6185 7.45847 72.0527 7.45847C73.977 7.45847 75.4384 7.89417 76.4369 8.76557C77.4354 9.63697 77.9346 10.8896 77.9346 12.5235V19.2224H79.3507V22H77.4172ZM71.6442 19.7943C72.4248 19.7943 73.0875 19.6218 73.6321 19.2769C74.1767 18.9319 74.449 18.4236 74.449 17.7519V15.873H72.2161C70.4006 15.873 69.4929 16.4539 69.4929 17.6158V18.0787C69.4929 18.6596 69.6745 19.0953 70.0375 19.3858C70.4188 19.6581 70.9543 19.7943 71.6442 19.7943Z" fill="#656565"/>
<path d="M90.673 7.78524H93.9407L88.2221 24.5325C88.0406 25.0408 87.8318 25.4765 87.5958 25.8396C87.378 26.2209 87.1147 26.5295 86.8061 26.7655C86.4975 27.0015 86.1253 27.174 85.6896 27.2829C85.2539 27.3918 84.7456 27.4463 84.1647 27.4463H82.0678V24.6687H84.6276L85.2811 22.6808L80.1889 7.78524H83.6473L86.1253 15.3011L87.0512 18.8956H87.2146L88.1949 15.3011L90.673 7.78524Z" fill="#656565"/>
<path d="M103.688 12.832C103.688 13.4896 103.469 14.0332 103.029 14.4629C102.593 14.8926 102.041 15.1074 101.374 15.1074C101.117 15.1074 100.845 15.0716 100.559 15C100.272 14.9284 100.026 14.8242 99.8213 14.6875V17.0117H98.9033V9.73633C98.9033 9.00716 99.1084 8.43587 99.5186 8.02246C99.932 7.60905 100.502 7.40234 101.228 7.40234C101.521 7.40234 101.787 7.43815 102.028 7.50977C102.272 7.57812 102.491 7.68717 102.683 7.83691C102.868 7.97689 103.016 8.15918 103.127 8.38379C103.238 8.6084 103.293 8.86882 103.293 9.16504C103.293 9.57845 103.179 9.93978 102.951 10.249C102.727 10.555 102.408 10.7682 101.994 10.8887V10.9717C102.512 11.0563 102.924 11.2614 103.229 11.5869C103.535 11.9092 103.688 12.3242 103.688 12.832ZM102.741 12.8076C102.741 12.5179 102.684 12.2835 102.57 12.1045C102.46 11.9222 102.31 11.7806 102.121 11.6797C101.929 11.5755 101.714 11.5055 101.477 11.4697C101.239 11.4339 101.001 11.416 100.764 11.416H100.588V10.6348H100.764C100.979 10.6348 101.192 10.612 101.403 10.5664C101.615 10.5176 101.784 10.4443 101.911 10.3467C102.061 10.236 102.172 10.1009 102.243 9.94141C102.318 9.7819 102.355 9.5638 102.355 9.28711C102.355 8.92253 102.243 8.64583 102.019 8.45703C101.794 8.26823 101.504 8.17383 101.149 8.17383C100.912 8.17383 100.708 8.21777 100.539 8.30566C100.37 8.3903 100.231 8.50423 100.124 8.64746C100.02 8.79069 99.9434 8.95833 99.8945 9.15039C99.8457 9.33919 99.8213 9.53451 99.8213 9.73633V13.9453C100.036 14.069 100.266 14.1569 100.51 14.209C100.754 14.2578 100.993 14.2822 101.228 14.2822C101.713 14.2822 102.085 14.1553 102.346 13.9014C102.609 13.6442 102.741 13.2796 102.741 12.8076Z" fill="#F48400"/>
<path d="M103.688 12.832C103.688 13.4896 103.469 14.0332 103.029 14.4629C102.593 14.8926 102.041 15.1074 101.374 15.1074C101.117 15.1074 100.845 15.0716 100.559 15C100.272 14.9284 100.026 14.8242 99.8213 14.6875V17.0117H98.9033V9.73633C98.9033 9.00716 99.1084 8.43587 99.5186 8.02246C99.932 7.60905 100.502 7.40234 101.228 7.40234C101.521 7.40234 101.787 7.43815 102.028 7.50977C102.272 7.57812 102.491 7.68717 102.683 7.83691C102.868 7.97689 103.016 8.15918 103.127 8.38379C103.238 8.6084 103.293 8.86882 103.293 9.16504C103.293 9.57845 103.179 9.93978 102.951 10.249C102.727 10.555 102.408 10.7682 101.994 10.8887V10.9717C102.512 11.0563 102.924 11.2614 103.229 11.5869C103.535 11.9092 103.688 12.3242 103.688 12.832ZM102.741 12.8076C102.741 12.5179 102.684 12.2835 102.57 12.1045C102.46 11.9222 102.31 11.7806 102.121 11.6797C101.929 11.5755 101.714 11.5055 101.477 11.4697C101.239 11.4339 101.001 11.416 100.764 11.416H100.588V10.6348H100.764C100.979 10.6348 101.192 10.612 101.403 10.5664C101.615 10.5176 101.784 10.4443 101.911 10.3467C102.061 10.236 102.172 10.1009 102.243 9.94141C102.318 9.7819 102.355 9.5638 102.355 9.28711C102.355 8.92253 102.243 8.64583 102.019 8.45703C101.794 8.26823 101.504 8.17383 101.149 8.17383C100.912 8.17383 100.708 8.21777 100.539 8.30566C100.37 8.3903 100.231 8.50423 100.124 8.64746C100.02 8.79069 99.9434 8.95833 99.8945 9.15039C99.8457 9.33919 99.8213 9.53451 99.8213 9.73633V13.9453C100.036 14.069 100.266 14.1569 100.51 14.209C100.754 14.2578 100.993 14.2822 101.228 14.2822C101.713 14.2822 102.085 14.1553 102.346 13.9014C102.609 13.6442 102.741 13.2796 102.741 12.8076Z" fill="#656565"/>
</svg>
